<svg width="48" height="48" viewBox="0 0 48 48" fill="none" xmlns="http://www.w3.org/2000/svg">
<path d="M12.4023 37.4219C11.6862 37.4219 11.1068 37.168 10.6641 36.6602C10.2214 36.1523 10 35.5208 10 34.7656C10 34.1016 10.1497 33.5612 10.4492 33.1445C10.7617 32.7148 11.263 32.3568 11.9531 32.0703L31.4258 23.75V23.5156L11.9727 15.1953C11.3086 14.9219 10.8138 14.5833 10.4883 14.1797C10.1628 13.776 10 13.2487 10 12.5977C10 11.8555 10.2344 11.237 10.7031 10.7422C11.1849 10.2474 11.7969 10 12.5391 10C12.8776 10 13.1966 10.0456 13.4961 10.1367C13.8086 10.2148 14.1081 10.3255 14.3945 10.4688L35.5273 20.1367C36.3867 20.5273 37.0638 21.0156 37.5586 21.6016C38.0664 22.1745 38.3203 22.8971 38.3203 23.7695C38.3203 24.6419 38.0664 25.3711 37.5586 25.957C37.0638 26.543 36.3867 27.0247 35.5273 27.4023L14.3945 36.8945C14.082 37.0378 13.763 37.1615 13.4375 37.2656C13.125 37.3698 12.7799 37.4219 12.4023 37.4219Z" fill="white"/>
</svg>
