<svg width="18" height="18" viewBox="0 0 18 18" fill="none" xmlns="http://www.w3.org/2000/svg">
<path d="M0 6.37553C0 5.57665 0.131965 4.8481 0.395894 4.18987C0.665689 3.53165 1.03812 2.96343 1.5132 2.48523C1.99413 2.00703 2.54839 1.64135 3.17595 1.38819C3.80352 1.1294 4.48094 1 5.20821 1C6.05865 1 6.80645 1.16878 7.45161 1.50633C8.09677 1.83826 8.6129 2.27707 9 2.82278C9.39296 2.27707 9.90909 1.83826 10.5484 1.50633C11.1935 1.16878 11.9413 1 12.7918 1C13.5191 1 14.1965 1.1294 14.824 1.38819C15.4575 1.64135 16.0117 2.00703 16.4868 2.48523C16.9619 2.96343 17.3314 3.53165 17.5953 4.18987C17.8651 4.8481 18 5.57665 18 6.37553C18 7.57947 17.6686 8.77496 17.0059 9.96203C16.3431 11.1435 15.4076 12.294 14.1994 13.4135C12.9971 14.5274 11.5836 15.5907 9.95894 16.6034C9.79472 16.7046 9.62463 16.7947 9.44868 16.8734C9.27859 16.9578 9.12903 17 9 17C8.87683 17 8.72727 16.9578 8.55132 16.8734C8.37537 16.7947 8.20821 16.7046 8.04985 16.6034C6.41935 15.5907 5 14.5274 3.79179 13.4135C2.58944 12.294 1.65689 11.1435 0.994135 9.96203C0.331378 8.77496 0 7.57947 0 6.37553ZM2.04106 6.36709C2.04106 7.08158 2.21701 7.81575 2.56891 8.56962C2.92669 9.31786 3.41935 10.0605 4.04692 10.7975C4.67449 11.5288 5.39883 12.2377 6.21994 12.9241C7.04106 13.6104 7.91789 14.2489 8.85044 14.8397C8.92669 14.8959 8.97654 14.9241 9 14.9241C9.02346 14.9241 9.07625 14.8959 9.15836 14.8397C10.085 14.2489 10.9589 13.6104 11.7801 12.9241C12.6012 12.2377 13.3255 11.5288 13.9531 10.7975C14.5806 10.0605 15.0704 9.31786 15.4223 8.56962C15.7801 7.81575 15.9589 7.08158 15.9589 6.36709C15.9589 5.67511 15.8123 5.07032 15.5191 4.55274C15.2317 4.03516 14.8358 3.63291 14.3314 3.34599C13.827 3.05345 13.2551 2.90717 12.6158 2.90717C12.0997 2.90717 11.6598 2.99156 11.2962 3.16034C10.9326 3.32349 10.6188 3.53446 10.3548 3.79325C10.0909 4.04641 9.86217 4.30239 9.66862 4.56118C9.53959 4.72433 9.42522 4.84248 9.32551 4.91561C9.23167 4.98875 9.12317 5.02532 9 5.02532C8.87683 5.02532 8.7654 4.99156 8.66569 4.92405C8.56598 4.85091 8.45161 4.72996 8.32258 4.56118C8.14076 4.30239 7.91789 4.04641 7.65396 3.79325C7.39589 3.54008 7.08211 3.32911 6.71261 3.16034C6.34311 2.99156 5.90029 2.90717 5.38416 2.90717C4.74487 2.90717 4.17302 3.05345 3.66862 3.34599C3.16422 3.63291 2.7654 4.03516 2.47214 4.55274C2.18475 5.07032 2.04106 5.67511 2.04106 6.36709Z" fill="#007764"/>
</svg>
