<svg width="48" height="48" viewBox="0 0 48 48" fill="none" xmlns="http://www.w3.org/2000/svg">
<path d="M18.4229 42.4617V30.4761C18.4229 30.0265 18.5582 29.6668 18.8288 29.397C19.1124 29.1273 19.4861 28.9924 19.9501 28.9924H28.0693C28.5203 28.9924 28.8812 29.1273 29.1518 29.397C29.4354 29.6668 29.5771 30.0265 29.5771 30.4761V42.4617H18.4229ZM2.20379 25.8322C1.53363 25.8322 0.998792 25.6331 0.599275 25.2348C0.199758 24.8238 0 24.3292 0 23.7511C0 23.0831 0.289972 22.5114 0.869915 22.0361L21.0133 5.17543C21.9283 4.39181 22.9207 4 23.9903 4C25.0729 4 26.0717 4.39181 26.9867 5.17543L47.1301 22.0361C47.71 22.5114 48 23.0831 48 23.7511C48 24.3292 47.8002 24.8238 47.4007 25.2348C47.0141 25.6331 46.4728 25.8322 45.7769 25.8322C45.4547 25.8322 45.1454 25.7615 44.849 25.6202C44.5526 25.4661 44.2755 25.2798 44.0177 25.0614L24.9182 9.10638C24.6347 8.84946 24.3254 8.721 23.9903 8.721C23.6681 8.721 23.3653 8.84946 23.0818 9.10638L3.98228 25.0614C3.72453 25.2798 3.44744 25.4661 3.15103 25.6202C2.85461 25.7615 2.53886 25.8322 2.20379 25.8322ZM36.0338 13.943V9.58812C36.0338 9.1385 36.1691 8.78523 36.4398 8.5283C36.7104 8.25853 37.0584 8.12365 37.4837 8.12365H40.4994C40.9505 8.12365 41.3049 8.25853 41.5626 8.5283C41.8204 8.78523 41.9493 9.1385 41.9493 9.58812V18.8952L36.0338 13.943ZM10.9223 45.8723C9.38864 45.8723 8.19009 45.4548 7.32662 44.6198C6.47604 43.7848 6.05074 42.6287 6.05074 41.1513V19.6082L10.3423 16.6985V39.7254C10.3423 40.3292 10.497 40.7852 10.8063 41.0935C11.1285 41.4147 11.586 41.5753 12.1788 41.5753H35.8212C36.414 41.5753 36.8651 41.4147 37.1744 41.0935C37.4966 40.7852 37.6577 40.3292 37.6577 39.7254V16.6985L41.9493 19.6082V41.1513C41.9493 42.6158 41.524 43.7656 40.6734 44.6006C39.8228 45.4484 38.6242 45.8723 37.0777 45.8723H10.9223Z" fill="#00AE35"/>
</svg>
