<svg width="48" height="48" viewBox="0 0 48 48" fill="none" xmlns="http://www.w3.org/2000/svg">
<path d="M24.3711 44.7422C21.5586 44.7422 18.9219 44.2083 16.4609 43.1406C14 42.0859 11.832 40.6276 9.95703 38.7656C8.09505 36.9036 6.63672 34.7422 5.58203 32.2812C4.52734 29.8203 4 27.1836 4 24.3711C4 21.5586 4.52734 18.9219 5.58203 16.4609C6.63672 14 8.09505 11.8385 9.95703 9.97656C11.832 8.10156 14 6.63672 16.4609 5.58203C18.9219 4.52734 21.5586 4 24.3711 4C27.1836 4 29.8203 4.52734 32.2812 5.58203C34.7422 6.63672 36.9036 8.10156 38.7656 9.97656C40.6276 11.8385 42.0859 14 43.1406 16.4609C44.2083 18.9219 44.7422 21.5586 44.7422 24.3711C44.7422 27.1836 44.2083 29.8203 43.1406 32.2812C42.0859 34.7422 40.6276 36.9036 38.7656 38.7656C36.9036 40.6276 34.7422 42.0859 32.2812 43.1406C29.8203 44.2083 27.1836 44.7422 24.3711 44.7422ZM24.3711 40.2695C26.5716 40.2695 28.6289 39.8594 30.543 39.0391C32.4701 38.2188 34.1562 37.0794 35.6016 35.6211C37.0599 34.1497 38.1992 32.457 39.0195 30.543C39.8529 28.6159 40.2695 26.5586 40.2695 24.3711C40.2695 22.1706 39.8529 20.1133 39.0195 18.1992C38.1992 16.2721 37.0599 14.5794 35.6016 13.1211C34.1562 11.6628 32.4701 10.5234 30.543 9.70312C28.6289 8.88281 26.5716 8.47266 24.3711 8.47266C22.1706 8.47266 20.1068 8.88281 18.1797 9.70312C16.2656 10.5234 14.5794 11.6628 13.1211 13.1211C11.6628 14.5794 10.5234 16.2721 9.70312 18.1992C8.88281 20.1133 8.47266 22.1706 8.47266 24.3711C8.47266 26.5586 8.88281 28.6159 9.70312 30.543C10.5234 32.457 11.6628 34.1497 13.1211 35.6211C14.5794 37.0794 16.2656 38.2188 18.1797 39.0391C20.1068 39.8594 22.1706 40.2695 24.3711 40.2695ZM14.2734 25.9531C13.6745 25.9531 13.2383 25.7773 12.9648 25.4258C12.6914 25.0612 12.6068 24.6576 12.7109 24.2148C12.8151 23.7591 13.1406 23.4076 13.6875 23.1602L30.8359 15.1133C31.3828 14.8659 31.8841 14.8333 32.3398 15.0156C32.8086 15.1979 33.1341 15.5169 33.3164 15.9727C33.5117 16.4284 33.4792 16.9362 33.2188 17.4961L25.25 34.6641C25.0026 35.1979 24.651 35.5234 24.1953 35.6406C23.7526 35.7448 23.349 35.6602 22.9844 35.3867C22.6198 35.1003 22.4375 34.6576 22.4375 34.0586V26.6172C22.4375 26.1745 22.2227 25.9531 21.793 25.9531H14.2734Z" fill="#ffffff"/>
</svg>
