<svg width="48" height="48" viewBox="0 0 48 48" fill="none" xmlns="http://www.w3.org/2000/svg">
<path d="M6.57189 45C4.42649 45 2.7916 44.4434 1.66721 43.3302C0.555735 42.2299 0 40.6119 0 38.476V27.0203C0 26.2307 0.0387722 25.5576 0.116317 25.0009C0.193861 24.4443 0.336026 23.9525 0.542811 23.5253C0.749596 23.0852 1.04039 22.6386 1.41519 22.1855L7.98708 14.2442C8.76252 13.3251 9.46688 12.6002 10.1002 12.0695C10.7464 11.5259 11.4313 11.144 12.1551 10.9239C12.8788 10.6909 13.7706 10.5744 14.8304 10.5744H31.5218C32.5816 10.5744 33.4733 10.6909 34.1971 10.9239C34.9338 11.144 35.6187 11.5194 36.252 12.0501C36.8853 12.5808 37.5832 13.3057 38.3457 14.2248L44.9176 22.1855C45.3053 22.6386 45.6026 23.0852 45.8094 23.5253C46.0162 23.9525 46.1583 24.4443 46.2359 25.0009C46.3134 25.5576 46.3522 26.2307 46.3522 27.0203V38.476C46.3522 40.6119 45.7964 42.2299 44.685 43.3302C43.5735 44.4434 41.9386 45 39.7803 45H6.57189ZM5.23425 25.1369H17.622C18.1389 25.1369 18.5137 25.2857 18.7464 25.5834C18.9919 25.8682 19.1147 26.1983 19.1147 26.5737V26.6319C19.1147 27.2921 19.2763 27.9458 19.5994 28.593C19.9225 29.2273 20.3877 29.7515 20.9952 30.1658C21.6026 30.58 22.3263 30.7871 23.1664 30.7871C24.0194 30.7871 24.7496 30.58 25.357 30.1658C25.9645 29.7515 26.4297 29.2273 26.7528 28.593C27.0889 27.9458 27.2569 27.2921 27.2569 26.6319V26.5737C27.2569 26.1983 27.3732 25.8682 27.6058 25.5834C27.8384 25.2857 28.2132 25.1369 28.7302 25.1369H41.1373C41.4475 25.1369 41.6349 25.0268 41.6995 24.8068C41.7641 24.5867 41.7189 24.3796 41.5638 24.1855L34.6042 15.5839C34.2036 15.0661 33.7641 14.6908 33.2859 14.4578C32.8078 14.2118 32.252 14.0888 31.6187 14.0888H14.7334C14.1131 14.0888 13.5574 14.2118 13.0662 14.4578C12.588 14.6908 12.1486 15.0661 11.748 15.5839L4.80775 24.1855C4.63974 24.3796 4.58805 24.5867 4.65267 24.8068C4.73021 25.0268 4.92407 25.1369 5.23425 25.1369ZM6.8433 40.6895H39.5089C40.349 40.6895 40.9952 40.4759 41.4475 40.0488C41.8998 39.6087 42.126 38.9356 42.126 38.0295V28.8843H30.7851C30.5525 30.0104 30.0808 31.0136 29.37 31.8938C28.6721 32.774 27.7932 33.473 26.7334 33.9908C25.6737 34.4956 24.4847 34.7481 23.1664 34.7481C21.874 34.7481 20.6979 34.4956 19.6381 33.9908C18.5784 33.486 17.6931 32.7935 16.9822 31.9132C16.2714 31.0201 15.7997 30.0104 15.567 28.8843H4.22617V38.0295C4.22617 38.9356 4.44588 39.6087 4.8853 40.0488C5.33764 40.4759 5.99031 40.6895 6.8433 40.6895Z" fill="#404040"/>
<path d="M48 13.9413C48 19.4317 43.5561 23.8826 38.0743 23.8826C32.5925 23.8826 28.1486 19.4317 28.1486 13.9413C28.1486 8.45086 32.5925 4 38.0743 4C43.5561 4 48 8.45086 48 13.9413Z" fill="#FE1F32"/>
</svg>
