<svg width="48" height="48" viewBox="0 0 48 48" fill="none" xmlns="http://www.w3.org/2000/svg">
<path d="M25.8477 13.1016C26.3164 13.1016 26.7135 13.2708 27.0391 13.6094C27.3776 13.9349 27.5469 14.332 27.5469 14.8008V28.5312L25.418 22.0273L32.0391 30.9727C32.3516 31.4023 32.4883 31.8516 32.4492 32.3203C32.4232 32.7891 32.2148 33.1536 31.8242 33.4141C31.3815 33.7266 30.9258 33.8438 30.457 33.7656C30.0013 33.6875 29.5911 33.4141 29.2266 32.9453L24.6367 26.8711C24.4544 26.6497 24.3242 26.4349 24.2461 26.2266C24.168 26.0052 24.1289 25.7708 24.1289 25.5234V14.8008C24.1289 14.332 24.2917 13.9349 24.6172 13.6094C24.9557 13.2708 25.3659 13.1016 25.8477 13.1016ZM25.8477 44.7422C23.7904 44.7422 21.7786 44.4297 19.8125 43.8047C17.8594 43.1797 16.0495 42.3008 14.3828 41.168C12.7161 40.0352 11.3034 38.7005 10.1445 37.1641C9.64974 36.5781 9.42839 35.9727 9.48047 35.3477C9.53255 34.7227 9.79948 34.2214 10.2812 33.8438C10.8151 33.4271 11.375 33.2839 11.9609 33.4141C12.5599 33.5312 13.0872 33.8372 13.543 34.332C14.5195 35.543 15.6393 36.5911 16.9023 37.4766C18.1784 38.362 19.5716 39.0456 21.082 39.5273C22.5924 40.0221 24.181 40.2695 25.8477 40.2695C28.0482 40.2695 30.1055 39.8594 32.0195 39.0391C33.9466 38.2188 35.6328 37.0794 37.0781 35.6211C38.5365 34.1497 39.6758 32.457 40.4961 30.543C41.3294 28.6159 41.7461 26.5586 41.7461 24.3711C41.7461 22.1706 41.3294 20.1133 40.4961 18.1992C39.6758 16.2721 38.5365 14.5794 37.0781 13.1211C35.6328 11.6628 33.9466 10.5234 32.0195 9.70312C30.1055 8.88281 28.0482 8.47266 25.8477 8.47266C23.6341 8.47266 21.5703 8.88281 19.6562 9.70312C17.7422 10.5234 16.056 11.6628 14.5977 13.1211C13.1393 14.5794 12 16.2721 11.1797 18.1992C10.3594 20.1133 9.94922 22.1706 9.94922 24.3711H5.47656C5.47656 21.5586 5.9974 18.9219 7.03906 16.4609C8.09375 14 9.55859 11.8385 11.4336 9.97656C13.3086 8.10156 15.4766 6.63672 17.9375 5.58203C20.3984 4.52734 23.0352 4 25.8477 4C28.6602 4 31.2969 4.52734 33.7578 5.58203C36.2188 6.63672 38.3802 8.10156 40.2422 9.97656C42.1042 11.8385 43.5625 14 44.6172 16.4609C45.6849 18.9219 46.2188 21.5586 46.2188 24.3711C46.2188 27.1836 45.6849 29.8203 44.6172 32.2812C43.5625 34.7422 42.1042 36.9036 40.2422 38.7656C38.3802 40.6276 36.2188 42.0859 33.7578 43.1406C31.2969 44.2083 28.6602 44.7422 25.8477 44.7422ZM3.50391 20.4258H12.957C13.4388 20.4258 13.8034 20.543 14.0508 20.7773C14.2982 20.9987 14.4154 21.2852 14.4023 21.6367C14.4023 21.9753 14.2656 22.3333 13.9922 22.7109L9.34375 29.0977C9.03125 29.5273 8.66016 29.7422 8.23047 29.7422C7.80078 29.7422 7.42318 29.5273 7.09766 29.0977L2.44922 22.7305C2.16276 22.3529 2.01302 21.9883 2 21.6367C2 21.2852 2.1237 20.9987 2.37109 20.7773C2.63151 20.543 3.00911 20.4258 3.50391 20.4258Z" fill="#404040"/>
</svg>
