<svg width="48" height="48" viewBox="0 0 48 48" fill="none" xmlns="http://www.w3.org/2000/svg">
<path d="M9.14062 28.2617C8.3724 28.2617 7.67578 28.0794 7.05078 27.7148C6.42578 27.3372 5.92448 26.8359 5.54688 26.2109C5.18229 25.5859 5 24.8958 5 24.1406C5 23.3724 5.18229 22.6758 5.54688 22.0508C5.92448 21.4258 6.42578 20.931 7.05078 20.5664C7.67578 20.1888 8.3724 20 9.14062 20C9.89583 20 10.5859 20.1888 11.2109 20.5664C11.8359 20.931 12.3307 21.4258 12.6953 22.0508C13.0729 22.6758 13.2617 23.3724 13.2617 24.1406C13.2617 24.8958 13.0729 25.5859 12.6953 26.2109C12.3307 26.8359 11.8359 27.3372 11.2109 27.7148C10.5859 28.0794 9.89583 28.2617 9.14062 28.2617ZM23.7891 28.2617C23.0339 28.2617 22.3438 28.0794 21.7188 27.7148C21.0938 27.3372 20.5924 26.8359 20.2148 26.2109C19.8503 25.5859 19.668 24.8958 19.668 24.1406C19.668 23.3724 19.8503 22.6758 20.2148 22.0508C20.5924 21.4258 21.0938 20.931 21.7188 20.5664C22.3438 20.1888 23.0339 20 23.7891 20C24.5443 20 25.2344 20.1888 25.8594 20.5664C26.4974 20.931 26.9987 21.4258 27.3633 22.0508C27.7409 22.6758 27.9297 23.3724 27.9297 24.1406C27.9297 24.8958 27.7409 25.5859 27.3633 26.2109C26.9987 26.8359 26.4974 27.3372 25.8594 27.7148C25.2344 28.0794 24.5443 28.2617 23.7891 28.2617ZM38.457 28.2617C37.6888 28.2617 36.9922 28.0794 36.3672 27.7148C35.7422 27.3372 35.2409 26.8359 34.8633 26.2109C34.4987 25.5859 34.3164 24.8958 34.3164 24.1406C34.3164 23.3724 34.4987 22.6758 34.8633 22.0508C35.2409 21.4258 35.7422 20.931 36.3672 20.5664C36.9922 20.1888 37.6888 20 38.457 20C39.2122 20 39.9023 20.1888 40.5273 20.5664C41.1523 20.931 41.6536 21.4258 42.0312 22.0508C42.4089 22.6758 42.5977 23.3724 42.5977 24.1406C42.5977 24.8958 42.4089 25.5859 42.0312 26.2109C41.6536 26.8359 41.1523 27.3372 40.5273 27.7148C39.9023 28.0794 39.2122 28.2617 38.457 28.2617Z" fill="#404040"/>
</svg>
